# AST/ASF file generated using VICON BodyLanguage
# -----------------------------------------------
:version 1.10
:name VICON
:units
  mass 1.0
  length 0.45
  angle deg
:documentation
   .ast/.asf automatically generated from VICON data using
   VICON BodyBuilder and BodyLanguage model FoxedUp or BRILLIANT.MOD
:root
   order TX TY TZ RX RY RZ
   axis XYZ
   position 0 0 0  
   orientation 0 0 0 
:bonedata
  begin
     id 1 
     name lhipjoint
     direction 0.541323 -0.757556 0.364798 
     length 2.47576 
     axis 0 0 0  XYZ
  end
  begin
     id 2 
     name lfemur
     direction 0.34202 -0.939693 0  
     length 7.46493  
     axis 0 0 20  XYZ
    dof rx ry rz
    limits (-160.0 20.0)
           (-70.0 70.0)
           (-60.0 70.0)
  end
  begin
     id 3 
     name ltibia
     direction 0.34202 -0.939693 0   
     length 7.73805   
     axis 0 0 20   XYZ
    dof rx
    limits (-10.0 170.0)
  end
  begin
     id 4 
     name lfoot
     direction 0.107174 -0.294458 0.949636   
     length 2.25864   
     axis -90 7.62852e-016 20   XYZ
    dof rx rz
    limits (-45.0 90.0)
           (-70.0 20.0)
  end
  begin
     id 5 
     name ltoes
     direction 1.53606e-011 -4.21934e-011 1   
     length 1.12451   
     axis -90 7.62852e-016 20   XYZ
    dof rx
    limits (-90.0 20.0)
  end
  begin
     id 6 
     name rhipjoint
     direction -0.524745 -0.766967 0.36933   
     length 2.44538  
     axis 0 0 0  XYZ 
  end
  begin
     id 7 
     name rfemur
     direction -0.34202 -0.939693 0   
     length 7.61604   
     axis 0 0 -20   XYZ
    dof rx ry rz
    limits (-160.0 20.0)
           (-70.0 70.0)
           (-70.0 60.0)
  end
  begin
     id 8 
     name rtibia
     direction -0.34202 -0.939693 0   
     length 7.61056   
     axis 0 0 -20   XYZ
    dof rx
    limits (-10.0 170.0)
 end
 begin
     id 9 
     name rfoot
     direction -0.12616 -0.346623 0.929482   
     length 2.46372  
     axis -90 -7.62852e-016 -20   XYZ
    dof rx rz
    limits (-45.0 90.0)
           (-20.0 70.0)
  end
  begin
     id 10 
     name rtoes
     direction -1.53531e-011 -4.22004e-011 1   
     length 1.21611   
     axis -90 -7.62852e-016 -20   XYZ
    dof rx
    limits (-90.0 20.0)
  end
  begin
     id 11 
     name lowerback
     direction -0.000778023 0.997293 -0.0735223   
     length 2.06139   
     axis 0 0 0   XYZ
    dof rx ry rz
    limits (-20.0 45.0)
           (-30.0 30.0)
           (-30.0 30.0)
  end
  begin
     id 12 
     name upperback
     direction 0.0222598 0.999722 -0.0078355   
     length 2.06383   
     axis 0 0 0   XYZ
    dof rx ry rz
    limits (-20.0 45.0)
           (-30.0 30.0)
           (-30.0 30.0)
  end
  begin
     id 13 
     name thorax
     direction 0.0219654 0.999405 0.0265994   
     length 2.07163   
     axis 0 0 0   XYZ
    dof rx ry rz
    limits (-20.0 45.0)
           (-30.0 30.0)
           (-30.0 30.0)
  end
  begin
     id 14 
     name lowerneck
     direction 0.0213282 0.988147 0.15202   
     length 1.75969   
     axis 0 0 0   XYZ
    dof rx ry rz
    limits (-20.0 45.0)
           (-30.0 30.0)
           (-30.0 30.0)
  end
  begin
     id 15 
     name upperneck
     direction -0.0546456 0.982624 -0.177379   
     length 1.79244   
     axis 0 0 0   XYZ
    dof rx ry rz
    limits (-20.0 45.0)
           (-30.0 30.0)
           (-30.0 30.0)
  end
  begin
     id 16
     name head
     direction -0.0199987 0.996855 -0.076686  
     length 1.80555  
     axis 0 0 0   XYZ
    dof rx ry rz
    limits (-20.0 45.0)
           (-30.0 30.0)
           (-30.0 30.0)
  end
  begin
     id 17 
     name lclavicle
     direction 0.929565 0.363219 -0.063096  
     length 3.55722  
     axis 0 0 0   XYZ
    dof ry rz
    limits (-20.0 10.0)
           (0.0 20.0)
  end
  begin
     id 18 
     name lhumerus
     direction 1 -4.48993e-011 -2.36203e-027   
     length 4.92785   
     axis 180 -30 -90   XYZ
    dof rx ry rz
    limits (-60.0 90.0)
           (-90.0 90.0)
           (-90.0 90.0)
  end
  begin
     id 19
     name lradius
     direction 1 -4.48947e-011 2.02997e-027   
     length 3.44052   
     axis 180 -30 -90   XYZ
    dof rx
    limits (-10.0 170.0)
  end
  begin
     id 20
     name lwrist
     direction 1 -4.48962e-011 1.45991e-027   
     length 1.72026   
     axis 1.49639e-024 90 90   XYZ
    dof ry
    limits (-180.0 0.0)
 end
  begin
     id 21 
     name lhand
     direction 1 -4.48984e-011 2.91906e-027   
     length 0.654326   
     axis -1.863e-015 90 90   XYZ
    dof rx rz
    limits (-90.0 90.0)
           (-45.0 45.0)
  end
  begin
     id 22 
     name lfingers
     direction 1 -4.48961e-011 5.83968e-027   
     length 0.527534   
     axis -3.72598e-015 90 90   XYZ
    dof rx
    limits (0.0 90.0)
  end
  begin
     id 23
     name lthumb
     direction 0.707107 -6.34963e-011 0.707107   
     length 0.757437   
     axis -90 45 -6.68868e-015   XYZ
    dof rx rz
    limits (-45.0 45.0)
           (-45.0 45.0)
  end
  begin
     id 24 
     name rclavicle
     direction -0.902944 0.422599 -0.0781198   
     length 3.54432  
     axis 0 0 0   XYZ 
    dof ry rz
    limits (-10.0 20.0)
           (-20.0 0.0)
  end
  begin
     id 25 
     name rhumerus
     direction -1 -4.48953e-011 -4.75835e-028  
     length 5.09181   
     axis 180 30 90   XYZ
    dof rx ry rz
    limits (-90.0 60.0)
           (-90.0 90.0)
           (-90.0 90.0)
  end
  begin
     id 26 
     name rradius
     direction -1 -4.48986e-011 -3.25889e-027   
     length 3.49865   
     axis 180 30 90   XYZ
    dof rx
    limits (-10.0 170.0)
  end
  begin
     id 27 
     name rwrist
     direction -1 -4.48963e-011 1.45989e-027   
     length 1.74933   
     axis 1.49639e-024 -90 -90   XYZ
    dof ry
    limits (-180.0 0.0)
  end
  begin
     id 28
     name rhand
     direction -1 -4.49003e-011 2.91844e-027   
     length 0.66641   
     axis -1.863e-015 -90 -90   XYZ
    dof rx rz
    limits (-90.0 90.0)
           (-45.0 45.0)
  end
  begin
     id 29
     name rfingers
     direction -1 -4.48973e-011 5.83886e-027   
     length 0.537277   
     axis -3.72598e-015 -90 -90   XYZ
    dof rx
    limits (0.0 90.0)
  end
  begin
     id 30
     name rthumb
     direction -0.707107 -6.34976e-011 0.707107   
     length 0.771425   
     axis -90 -45 6.68868e-015   XYZ
    dof rx rz
    limits (-45.0 45.0)
           (-45.0 45.0)
  end
:hierarchy
  begin
    root lhipjoint rhipjoint lowerback
    lhipjoint lfemur
    lfemur ltibia
    ltibia lfoot
    lfoot ltoes
    rhipjoint rfemur
    rfemur rtibia
    rtibia rfoot
    rfoot rtoes
    lowerback upperback
    upperback thorax
    thorax lowerneck lclavicle rclavicle
    lowerneck upperneck
    upperneck head
    lclavicle lhumerus
    lhumerus lradius
    lradius lwrist
    lwrist lhand lthumb
    lhand lfingers
    rclavicle rhumerus
    rhumerus rradius
    rradius rwrist
    rwrist rhand rthumb
    rhand rfingers
  end

#!OML:ASF H:\LiuWeirdWalks\Patient Classification 1\Patient 1\Session 1\male.ASF
:FULLY-SPECIFIED
:DEGREES
72
root 0.547063 17.9773 -25.8785 1.69314 38.5406 -0.81454
lowerback 4.2985 8.44532 2.29383
upperback -0.778974 11.3983 0.400487
thorax -2.82057 5.64408 -1.56217
lowerneck 5.63798 20.0083 15.2761
upperneck -2.42263 27.7912 -16.2111
head 2.739 14.0741 -5.82177
rclavicle 9.74915e-014 -5.96354e-015
rhumerus -42.0214 -20.4844 -68.4895
rradius 32.0964
rwrist -12.3689
rhand -16.9621 -0.354931
rfingers 7.12502
rthumb 9.27196 -30.1311
lclavicle 9.74915e-014 -5.96354e-015
lhumerus -26.9935 -2.33554 86.6383
lradius 24.1138
lwrist 0.921155
lhand -10.71 2.73229
lfingers 7.12502
lthumb 15.2998 32.1464
rfemur -0.356279 -14.1598 19.6997
rtibia 24.349
rfoot -18.2917 -41.372
rtoes 2.92123
lfemur -12.9208 -12.0438 -14.477
ltibia 25.6351
lfoot -12.6333 -5.41475
ltoes -9.30041
73
root 0.548262 17.9773 -25.8795 1.68388 38.5241 -0.842826
lowerback 4.19865 8.30733 2.20391
upperback -0.706331 11.2114 0.597659
thorax -2.75328 5.55601 -1.28831
lowerneck 5.91368 20.147 14.8084
upperneck -2.69522 27.9641 -16.304
head 2.59322 14.1821 -5.82857
rclavicle -1.69452e-013 -3.57812e-015
rhumerus -41.7008 -19.825 -68.5733
rradius 32.0674
rwrist -12.397
rhand -16.7264 -0.581485
rfingers 7.12502
rthumb 9.49931 -30.3474
lclavicle -1.69452e-013 -3.57812e-015
lhumerus -27.0165 -1.52448 86.6519
lradius 24.0873
lwrist 0.553191
lhand -10.6803 2.60887
lfingers 7.12502
lthumb 15.3285 32.0208
rfemur -0.348689 -14.1446 19.7209
rtibia 24.3159
rfoot -18.2886 -41.3669
rtoes 2.94618
lfemur -12.9326 -12.0551 -14.4557
ltibia 25.6489
lfoot -12.6473 -5.38829
ltoes -9.29705
74
root 0.549493 17.9775 -25.8804 1.67767 38.5075 -0.870081
lowerback 4.12609 8.22034 2.14511
upperback -0.657668 11.0935 0.731693
thorax -2.70396 5.50067 -1.10317
lowerneck 6.17785 20.2316 14.525
upperneck -2.96641 28.0706 -16.4211
head 2.4679 14.2555 -5.86587
rclavicle 1.15146e-013 -3.97569e-016
rhumerus -41.4879 -19.3561 -68.6346
rradius 32.0344
rwrist -12.3018
rhand -16.5078 -0.766358
rfingers 7.12502
rthumb 9.71021 -30.5225
lclavicle 1.15146e-013 -3.97569e-016
lhumerus -27.0309 -0.968244 86.6601
lradius 24.0723
lwrist 0.243705
lhand -10.6679 2.49248
lfingers 7.12502
lthumb 15.3403 31.9035
rfemur -0.344313 -14.1293 19.7417
rtibia 24.2824
rfoot -18.2823 -41.362
rtoes 2.96686
lfemur -12.9471 -12.0635 -14.435
ltibia 25.6632
lfoot -12.6589 -5.36124
ltoes -9.29918
75
root 0.550815 17.9777 -25.881 1.66872 38.4841 -0.899064
lowerback 4.08046 8.18731 2.11895
upperback -0.629423 11.0484 0.80195
thorax -2.66945 5.4801 -1.0079
lowerneck 6.37426 20.2708 14.4115
upperneck -3.17458 28.1223 -16.53
head 2.38512 14.2959 -5.91168
rclavicle 3.42904e-015 8.34896e-015
rhumerus -41.3847 -19.093 -68.6759
rradius 32.0058
rwrist -12.0881
rhand -16.2757 -0.985122
rfingers 7.12502
rthumb 9.93416 -30.7307
lclavicle 3.42904e-015 8.34896e-015
lhumerus -27.0334 -0.680066 86.6619
lradius 24.0722
lwrist 0.00136251
lhand -10.6669 2.38675
lfingers 7.12502
lthumb 15.3414 31.7977
rfemur -0.337566 -14.1074 19.7645
rtibia 24.248
rfoot -18.2733 -41.3587
rtoes 2.97863
lfemur -12.9587 -12.0595 -14.4131
ltibia 25.6767
lfoot -12.6692 -5.33977
ltoes -9.31524
76
root 0.55219 17.978 -25.8816 1.66054 38.4604 -0.930709
lowerback 4.07236 8.22493 2.14252
upperback -0.632478 11.099 0.784571
thorax -2.65895 5.505 -1.03869
lowerneck 6.44318 20.2458 14.535
upperneck -3.24352 28.1009 -16.616
head 2.38081 14.2892 -5.95832
rclavicle 5.12989e-014 3.97569e-016
rhumerus -41.4181 -19.0961 -68.7001
rradius 31.9797
rwrist -11.7655
rhand -16.0873 -1.19971
rfingers 7.12502
rthumb 10.116 -30.9365
lclavicle 5.12989e-014 3.97569e-016
lhumerus -27.0178 -0.744088 86.6549
lradius 24.0871
lwrist -0.141827
lhand -10.6748 2.29866
lfingers 7.12502
lthumb 15.3337 31.7101
rfemur -0.333755 -14.0847 19.7904
rtibia 24.2128
rfoot -18.2587 -41.3568
rtoes 2.98304
lfemur -12.9718 -12.0555 -14.3881
ltibia 25.6894
lfoot -12.6753 -5.31731
ltoes -9.32551
77
root 0.55351 17.9784 -25.8821 1.65212 38.4346 -0.963461
lowerback 4.0582 8.25488 2.15571
upperback -0.629119 11.1389 0.779493
thorax -2.64308 5.52499 -1.04984
lowerneck 6.45503 20.2339 14.6345
upperneck -3.23978 28.0969 -16.6844
head 2.40345 14.2878 -5.98525
rclavicle 6.71892e-014 -2.78299e-015
rhumerus -41.4318 -19.0695 -68.7257
rradius 31.9397
rwrist -11.3975
rhand -15.9006 -1.44712
rfingers 7.12502
rthumb 10.2961 -31.1751
lclavicle 6.71892e-014 -2.78299e-015
lhumerus -27.0106 -0.798228 86.6592
lradius 24.1238
lwrist -0.235211
lhand -10.6885 2.23904
lfingers 7.12502
lthumb 15.3205 31.6515
rfemur -0.330775 -14.0554 19.8191
rtibia 24.1782
rfoot -18.2447 -41.3585
rtoes 2.98601
lfemur -12.985 -12.0471 -14.3615
ltibia 25.6999
lfoot -12.6768 -5.29845
ltoes -9.33868
78
root 0.555088 17.9788 -25.8823 1.64432 38.4022 -0.993207
lowerback 4.0438 8.27914 2.16663
upperback -0.624875 11.1713 0.778939
thorax -2.62768 5.54128 -1.05482
lowerneck 6.44004 20.2345 14.7002
upperneck -3.20724 28.1061 -16.7233
head 2.43161 14.2914 -5.99535
rclavicle -9.31679e-014 -1.59028e-014
rhumerus -41.4401 -19.021 -68.7533
rradius 31.9039
rwrist -11.0454
rhand -15.7275 -1.72442
rfingers 7.12502
rthumb 10.463 -31.444
lclavicle -9.31679e-014 -1.59028e-014
lhumerus -27.0108 -0.824575 86.6593
lradius 24.1636
lwrist -0.306714
lhand -10.6965 2.1913
lfingers 7.12502
lthumb 15.3129 31.6044
rfemur -0.327067 -14.0249 19.8435
rtibia 24.1462
rfoot -18.2316 -41.3552
rtoes 2.98463
lfemur -12.9913 -12.0369 -14.3386
ltibia 25.7071
lfoot -12.6767 -5.27418
ltoes -9.34688
79
root 0.556616 17.9795 -25.8825 1.64678 38.3776 -1.01542
lowerback 4.02674 8.29399 2.17269
upperback -0.621377 11.1908 0.778856
thorax -2.61292 5.55124 -1.05585
lowerneck 6.40244 20.2476 14.7085
upperneck -3.15912 28.1258 -16.7268
head 2.4562 14.2989 -5.98688
rclavicle 1.04822e-013 1.55052e-014
rhumerus -41.4278 -18.9536 -68.7839
rradius 31.8625
rwrist -10.7258
rhand -15.5554 -2.02802
rfingers 7.12502
rthumb 10.629 -31.7392
lclavicle 1.04822e-013 1.55052e-014
lhumerus -27.0168 -0.839137 86.6551
lradius 24.2109
lwrist -0.3355
lhand -10.7025 2.17134
lfingers 7.12502
lthumb 15.307 31.5849
rfemur -0.330421 -14.0032 19.8623
rtibia 24.1182
rfoot -18.2164 -41.35
rtoes 2.98687
lfemur -13.0029 -12.0257 -14.3207
ltibia 25.7105
lfoot -12.6753 -5.26019
ltoes -9.34884
80
root 0.558016 17.9805 -25.8826 1.67091 38.3628 -1.02578
lowerback 4.00269 8.30403 2.17265
upperback -0.625096 11.2033 0.770576
thorax -2.60144 5.55767 -1.0611
lowerneck 6.36802 20.2687 14.6712
upperneck -3.13076 28.1496 -16.7012
head 2.46438 14.3088 -5.96837
rclavicle 7.09413e-015 1.19271e-014
rhumerus -41.4075 -18.8972 -68.8076
rradius 31.8388
rwrist -10.5403
rhand -15.3427 -2.36719
rfingers 7.12502
rthumb 10.8342 -32.0677
lclavicle 7.09413e-015 1.19271e-014
lhumerus -27.0178 -0.840547 86.6408
lradius 24.2485
lwrist -0.3349
lhand -10.7146 2.1826
lfingers 7.12502
lthumb 15.2955 31.597
rfemur -0.351688 -13.9878 19.8755
rtibia 24.0953
rfoot -18.2079 -41.348
rtoes 2.99208
lfemur -13.0319 -12.0133 -14.3096
ltibia 25.7106
lfoot -12.6694 -5.25397
ltoes -9.34664
